<?xml version="1.0" encoding="UTF-8" standalone="no"?>
<!-- Created with Inkscape (http://www.inkscape.org/) -->

<svg
   xmlns:dc="http://purl.org/dc/elements/1.1/"
   xmlns:cc="http://creativecommons.org/ns#"
   xmlns:rdf="http://www.w3.org/1999/02/22-rdf-syntax-ns#"
   xmlns:svg="http://www.w3.org/2000/svg"
   xmlns="http://www.w3.org/2000/svg"
   xmlns:sodipodi="http://sodipodi.sourceforge.net/DTD/sodipodi-0.dtd"
   xmlns:inkscape="http://www.inkscape.org/namespaces/inkscape"
   width="744.09448819"
   height="1052.3622047"
   id="svg2"
   version="1.1"
   inkscape:version="0.48.3.1 r9886"
   sodipodi:docname="logo1.svg"
   inkscape:export-filename="/home/zoli/workspace/sprinkler/head/assets/logo1.png"
   inkscape:export-xdpi="90"
   inkscape:export-ydpi="90">
  <defs
     id="defs4" />
  <sodipodi:namedview
     id="base"
     pagecolor="#ffffff"
     bordercolor="#666666"
     borderopacity="1.0"
     inkscape:pageopacity="0.0"
     inkscape:pageshadow="2"
     inkscape:zoom="0.7"
     inkscape:cx="360.23228"
     inkscape:cy="533.32974"
     inkscape:document-units="px"
     inkscape:current-layer="layer1"
     showgrid="false"
     inkscape:window-width="940"
     inkscape:window-height="882"
     inkscape:window-x="1338"
     inkscape:window-y="60"
     inkscape:window-maximized="0" />
  <metadata
     id="metadata7">
    <rdf:RDF>
      <cc:Work
         rdf:about="">
        <dc:format>image/svg+xml</dc:format>
        <dc:type
           rdf:resource="http://purl.org/dc/dcmitype/StillImage" />
        <dc:title></dc:title>
      </cc:Work>
    </rdf:RDF>
  </metadata>
  <g
     inkscape:groupmode="layer"
     id="layer2"
     inkscape:label="2">
    <path
       style="fill:#00ff00"
       id="path3064"
       d="m 111.38491,420.13976 c 2.23812,-0.94585 4.33179,-2.17377 6.61945,-3.03821 3.20796,-1.60682 6.50271,-2.8274 10.00589,-3.59968 3.4448,-0.60585 6.94756,-0.77255 10.43803,-0.86634 2.35637,-0.1406 4.64715,-0.0408 6.9636,0.36316 3.31972,0.40823 6.50041,1.47003 9.72716,2.29636 5.07939,1.13596 10.29912,1.30888 15.48118,1.46675 5.37381,0.11161 10.74954,0.0799 16.12428,0.0878 6.60715,0.0467 13.21437,0.0681 19.82168,0.064 6.19416,-0.0135 12.38809,-0.0675 18.58228,-0.0724 6.49098,0.22214 12.93682,1.02026 19.3737,1.83511 4.12982,0.72815 8.37263,0.54769 12.50377,1.18448 2.33077,0.48285 4.69643,0.68758 7.0698,0.79395 2.65635,0.063 5.31366,0.18513 7.96354,-0.0331 4.44234,-0.68627 8.87804,-1.42178 13.33035,-2.04608 4.19994,-0.85088 8.4505,-1.37459 12.72332,-1.66177 2.8967,-0.17795 5.79881,-0.25369 8.70067,-0.2436 2.78931,-0.0814 5.54096,0.0362 8.30508,0.39128 3.4042,0.41134 6.76681,1.11681 10.13421,1.75681 3.69664,0.83771 7.35289,1.82571 11.09819,2.42752 3.17358,0.45367 6.38323,0.49527 9.58253,0.54124 4.42698,-0.0407 8.83673,0.12011 13.25146,0.4267 5.33593,0.72409 10.48505,-0.33104 15.61821,-1.64465 3.54994,-1.19613 7.1433,-2.13907 10.85655,-2.63092 2.61477,-0.24034 5.24179,-0.26981 7.86553,-0.28119 2.70672,0.44322 5.20429,1.68809 7.78189,2.58107 2.97933,1.08421 5.96657,2.04159 8.84507,3.38136 3.9505,1.61472 8.16489,2.31598 12.38178,2.78928 5.12732,0.46451 10.27998,0.50656 15.42428,0.47574 3.76828,0.0462 7.51735,-0.055 11.27459,-0.31952 4.76675,-0.91468 9.52306,-1.94692 14.22609,-3.14913 2.97478,-0.64853 5.89938,-1.48484 8.86301,-2.17189 2.07866,-0.37027 4.22229,-0.69735 6.31893,-0.35232 2.6274,0.7185 5.2658,1.264 7.97993,1.5673 3.99162,0.34415 8.00189,0.35626 12.00518,0.40495 5.97195,-0.42243 11.96147,-0.48496 17.93376,-0.87499 5.78365,-0.0929 11.426,-1.11203 17.07402,-2.23667 3.26664,-0.90777 6.54118,-1.79419 9.88727,-2.35387 3.67178,-0.61201 7.34154,-1.1221 11.05584,-1.41336 2.93716,-0.26014 5.83521,-0.40692 8.75049,0.043 1.46175,0.22405 0.7387,0.12053 2.16901,0.3116 0,0 -12.0915,8.5259 -12.0915,8.5259 l 0,0 c -1.41699,-0.21497 -0.70409,-0.10722 -2.1387,-0.32321 -2.77913,-0.33053 -5.57607,-0.0991 -8.36099,0.0724 -3.69988,0.32884 -7.35371,0.94448 -11.01402,1.56623 -3.2767,0.67781 -6.49701,1.59515 -9.77464,2.26983 -5.57225,0.97789 -11.16089,1.65971 -16.82456,1.83342 -6.0955,0.36918 -12.19551,0.68348 -18.29265,1.01596 -4.09245,-0.002 -8.19777,0.0101 -12.27355,-0.4058 -2.74801,-0.32615 -5.41953,-0.99036 -8.14965,-1.40208 -2.01768,-0.0132 -4.02827,0.22861 -5.98993,0.70713 -2.85337,0.70584 -5.72817,1.30151 -8.59144,1.96614 -4.76262,1.07085 -9.51115,2.25843 -14.34701,2.95135 -3.79762,0.30809 -7.5944,0.39783 -11.40385,0.26161 -5.11274,-0.13113 -10.22979,-0.2637 -15.32564,-0.72757 -4.40721,-0.49704 -8.82698,-1.19889 -12.9394,-2.94151 -2.87251,-1.21383 -5.82158,-2.21443 -8.74479,-3.29762 -2.48975,-0.85377 -4.99807,-1.94987 -7.65736,-2.06669 -2.55558,0.008 -5.12027,0.0275 -7.65656,0.37904 -3.58376,0.54848 -7.04468,1.57594 -10.52844,2.5619 -5.2014,1.21383 -10.43445,1.85646 -15.78207,1.23156 -4.5031,-0.23181 -8.99958,-0.20016 -13.50722,-0.16181 -3.24171,-0.051 -6.4903,-0.17975 -9.68885,-0.75546 -3.71369,-0.73167 -7.36448,-1.73473 -11.08116,-2.45576 -3.37084,-0.62897 -6.7481,-1.27573 -10.16368,-1.60529 -2.75249,-0.2703 -5.50612,-0.23579 -8.26981,-0.20769 -2.82405,0.0246 -5.65047,0.0114 -8.4701,0.19963 -4.20945,0.32073 -8.38301,0.89378 -12.53695,1.65051 -4.52656,0.66191 -9.0315,1.4684 -13.56384,2.08787 -2.74043,0.15678 -5.48895,0.14627 -8.23027,-0.005 -2.37798,-0.17305 -4.74089,-0.45959 -7.07863,-0.93789 -3.9946,-0.52185 -8.01419,-0.86327 -11.99204,-1.52276 -6.42846,-0.85182 -12.878,-1.58122 -19.37298,-1.61143 -6.12998,-0.005 -12.25971,-0.058 -18.38966,-0.0668 -6.6812,0.002 -13.36224,0.0335 -20.04314,0.0975 -5.3799,0.0161 -10.76011,0.0141 -16.13849,-0.13742 -5.30292,-0.19193 -10.64002,-0.43239 -15.83761,-1.58587 -3.2743,-0.79633 -6.54221,-1.66723 -9.90639,-2.00099 -2.24165,-0.28136 -4.49457,-0.22814 -6.75077,-0.20217 -3.38973,0.0732 -6.79743,0.23194 -10.11068,1.0141 -3.47048,0.93296 -6.7115,2.37054 -9.97454,3.86048 -2.3009,1.04634 -4.52638,2.23903 -6.80948,3.32074 0,0 11.69144,-9.35205 11.69144,-9.35205 z"
       inkscape:connector-curvature="0" />
  </g>
  <g
     inkscape:label="Layer 1"
     inkscape:groupmode="layer"
     id="layer1">
    <flowRoot
       xml:space="preserve"
       id="flowRoot3017"
       style="font-size:40px;font-style:normal;font-variant:normal;font-weight:normal;font-stretch:normal;line-height:125%;letter-spacing:0px;word-spacing:0px;fill:#000000;fill-opacity:1;stroke:none;font-family:Ubuntu;-inkscape-font-specification:Ubuntu"
       transform="matrix(1.7434418,0,0,1.7434418,252.56413,-63.942198)"><flowRegion
         id="flowRegion3019"><rect
           id="rect3021"
           width="842.85712"
           height="408.57144"
           x="-40"
           y="206.6479"
           style="font-style:normal;font-variant:normal;font-weight:normal;font-stretch:normal;font-family:Ubuntu;-inkscape-font-specification:Ubuntu" /></flowRegion><flowPara
         id="flowPara3023"
         style="font-size:64px;font-style:normal;font-variant:normal;font-weight:500;font-stretch:normal;font-family:Ubuntu;-inkscape-font-specification:Ubuntu Medium">prinkler</flowPara></flowRoot>    <flowRoot
       xml:space="preserve"
       id="flowRoot3047"
       style="font-size:22.30356789px;font-style:normal;font-weight:bold;line-height:125%;letter-spacing:0px;word-spacing:0px;fill:#000000;fill-opacity:1;stroke:none;font-family:Sans;-inkscape-font-specification:Sans Bold"
       transform="matrix(4.6120967,0,0,4.6120967,-225.51289,-140.21844)"><flowRegion
         id="flowRegion3049"><rect
           id="rect3051"
           width="210.11172"
           height="125.25892"
           x="73.741135"
           y="96.757874"
           style="font-size:22.30356789px;font-weight:bold;-inkscape-font-specification:Sans Bold" /></flowRegion><flowPara
         id="flowPara3053"
         style="font-size:22.30356789px;font-weight:bold;-inkscape-font-specification:Sans Bold">S</flowPara></flowRoot>  </g>
</svg>
